<svg width="505" height="504" viewBox="0 0 505 504" fill="none" xmlns="http://www.w3.org/2000/svg">
<path fill-rule="evenodd" clip-rule="evenodd" d="M126.4 0H377.6C447.2 0 504 56.8 504.4 126.4V377.6C504.4 447.2 447.6 504 378 504H126.4C56.8 504 0 447.2 0 378V126.4C0 56.8 56.8 0 126.4 0ZM317.684 117.069L422.202 307.921C425.359 313.773 427.023 320.314 427.046 326.963C427.07 333.612 425.452 340.164 422.336 346.038L392.57 399.913C391.39 402.013 389.667 403.759 387.583 404.967C385.498 406.175 383.127 406.802 380.718 406.782C378.331 406.778 375.989 406.14 373.93 404.933C371.871 403.726 370.17 401.993 369 399.913L210.877 117.069C209.695 115.022 209.073 112.699 209.073 110.335C209.073 107.97 209.695 105.648 210.877 103.6C212.081 101.57 213.797 99.8916 215.853 98.7333C217.91 97.5751 220.235 96.9775 222.595 97.0007H283.339C290.325 97.0186 297.182 98.8846 303.214 102.409C309.246 105.934 314.239 110.992 317.684 117.069ZM380.583 366.376L398.631 333.377C399.693 331.485 400.251 329.351 400.251 327.182C400.251 325.012 399.693 322.878 398.631 320.986L294.114 130.134C293.012 128.253 291.439 126.692 289.549 125.605C287.659 124.519 285.519 123.944 283.339 123.938H245.492L380.583 366.376ZM144.341 379.844H326.17C329.742 379.844 333.167 381.263 335.693 383.789C338.219 386.315 339.638 389.741 339.638 393.313C339.638 396.885 338.219 400.311 335.693 402.837C333.167 405.363 329.742 406.782 326.17 406.782H144.341C137.599 406.646 130.999 404.824 125.141 401.484C119.283 398.143 114.354 393.39 110.804 387.656L78.8833 332.838C77.6709 330.794 77.0213 328.464 77.0005 326.087C76.9798 323.71 77.5886 321.369 78.7651 319.304C79.9416 317.238 81.6439 315.52 83.6991 314.326C85.7543 313.131 88.0891 312.501 90.4664 312.501H287.918C291.49 312.501 294.916 313.92 297.442 316.446C299.968 318.971 301.387 322.397 301.387 325.969C301.387 329.542 299.968 332.967 297.442 335.493C294.916 338.019 291.49 339.438 287.918 339.438H113.902L133.701 373.918C134.824 375.73 136.391 377.225 138.252 378.262C140.114 379.299 142.21 379.843 144.341 379.844ZM264.213 294.587H117.404C115.146 294.482 112.95 293.81 111.02 292.633C109.09 291.456 107.487 289.812 106.36 287.853C105.177 285.805 104.555 283.483 104.555 281.118C104.555 278.754 105.177 276.432 106.36 274.384L180.303 146.97C181.478 144.934 183.166 143.241 185.198 142.06C187.23 140.879 189.536 140.25 191.886 140.235C194.237 140.25 196.542 140.879 198.574 142.06C200.606 143.241 202.294 144.934 203.469 146.97L275.931 274.519C277.113 276.566 277.736 278.889 277.736 281.253C277.736 283.617 277.113 285.94 275.931 287.988C274.727 290.018 273.011 291.696 270.955 292.855C268.898 294.013 266.573 294.61 264.213 294.587ZM240.643 267.65L191.213 180.776L141.378 267.65H240.643Z" fill="#0277B9"/>
</svg>
