<svg width="505" height="504" viewBox="0 0 505 504" fill="none" xmlns="http://www.w3.org/2000/svg">
<path fill-rule="evenodd" clip-rule="evenodd" d="M377.6 0H126.4C56.8 0 0 56.8 0 126.4V378C0 447.2 56.8 504 126.4 504H378C447.6 504 504.4 447.2 504.4 377.6V126.4C504 56.8 447.2 0 377.6 0ZM314.508 253.475L444.455 335.625V167.856L314.508 253.475ZM59 335.625V167.856L188.946 253.475L59 335.625ZM420.364 119H83.0909C71.0695 119 61.5295 127.962 59.7227 139.501L251.727 266.003L443.732 139.501C441.925 127.962 432.385 119 420.364 119ZM258.352 290.479L292.441 268.026L443.684 363.667C441.829 375.11 432.337 384 420.364 384H83.0909C71.1178 384 61.6259 375.11 59.7709 363.667L211.014 268.002L245.102 290.479C247.126 291.804 249.415 292.455 251.727 292.455C254.04 292.455 256.329 291.804 258.352 290.479Z" fill="#0277B9"/>
</svg>
