<svg width="497" height="497" viewBox="0 0 497 497" fill="none" xmlns="http://www.w3.org/2000/svg">
<path d="M179.26 399.605C175.804 400.249 174.294 401.871 174.727 404.457C175.158 407.044 177.099 407.909 180.55 407.044C184.006 406.183 185.514 404.67 185.08 402.514C184.652 400.144 182.71 399.171 179.26 399.605Z" fill="#0277B9"/>
<path d="M160.815 402.196C157.363 402.196 155.638 403.376 155.638 405.753C155.638 408.557 157.473 409.74 161.138 409.31C164.59 409.31 166.317 408.123 166.317 405.753C166.317 402.953 164.483 401.762 160.815 402.196Z" fill="#0277B9"/>
<path d="M135.577 401.218C134.716 403.592 136.119 405.206 139.783 406.073C143.018 407.362 145.069 406.717 145.93 404.131C146.578 401.761 145.175 400.039 141.724 398.954C138.487 398.093 136.439 398.838 135.577 401.218Z" fill="#0277B9"/>
<path d="M469.657 27.3389C451.428 9.11411 429.485 0 403.81 0H93.1867C67.5194 0 45.5683 9.11411 27.3389 27.3389C9.11411 45.5671 0 67.5183 0 93.1867V403.814C0 429.484 9.11411 451.433 27.3389 469.658C45.5671 487.886 67.5194 497 93.1867 497H165.666C170.407 497 173.969 496.837 176.341 496.52C178.712 496.193 181.083 494.79 183.457 492.307C185.833 489.828 187.016 486.214 187.016 481.47C187.016 480.827 186.959 473.485 186.853 459.465C186.743 445.44 186.69 434.332 186.69 426.134L179.247 427.429C174.502 428.291 168.516 428.67 161.289 428.561C154.065 428.453 146.567 427.7 138.803 426.297C131.034 424.893 123.81 421.658 117.122 416.594C110.438 411.52 105.693 404.889 102.888 396.694L99.6511 389.247C97.4945 384.291 94.099 378.787 89.4604 372.753C84.8217 366.71 80.1309 362.611 75.3858 360.454L73.1203 358.835C71.6118 357.758 70.2099 356.458 68.9145 354.949C67.6214 353.436 66.6513 351.925 66.0042 350.419C65.3571 348.907 65.8943 347.666 67.6214 346.692C69.3486 345.723 72.4731 345.243 77.0053 345.243L83.4742 346.211C87.7899 347.073 93.1255 349.659 99.4925 353.976C105.855 358.289 111.085 363.897 115.184 370.798C120.148 379.644 126.129 386.381 133.143 391.019C140.151 395.663 147.217 397.981 154.335 397.981C161.452 397.981 167.599 397.442 172.778 396.367C177.952 395.286 182.806 393.664 187.338 391.508C189.279 377.057 194.565 365.941 203.191 358.177C190.897 356.882 179.842 354.943 170.024 352.352C160.212 349.761 150.072 345.558 139.612 339.731C129.147 333.906 120.466 326.684 113.563 318.051C106.661 309.417 100.996 298.093 96.5776 284.076C92.1565 270.052 89.9454 253.871 89.9454 235.538C89.9454 209.439 98.4691 187.217 115.51 168.883C107.527 149.254 108.28 127.254 117.773 102.877C124.029 100.934 133.306 102.391 145.6 107.245C157.897 112.103 166.9 116.256 172.618 119.703C178.337 123.15 182.919 126.065 186.371 128.441C206.437 122.832 227.143 120.028 248.497 120.028C269.85 120.028 290.56 122.832 310.627 128.441L322.922 120.675C331.338 115.496 341.259 110.751 352.693 106.439C364.126 102.125 372.86 100.937 378.903 102.88C388.606 127.258 389.475 149.257 381.486 168.885C398.526 187.221 407.052 209.442 407.052 235.541C407.052 253.878 404.841 270.113 400.42 284.238C396.002 298.368 390.289 309.696 383.273 318.216C376.265 326.738 367.527 333.905 357.066 339.733C346.604 345.555 336.465 349.767 326.648 352.35C316.833 354.94 305.779 356.887 293.484 358.183C304.694 367.886 310.301 383.197 310.301 404.125V481.46C310.301 485.129 310.836 488.092 311.915 490.358C313.001 492.622 314.724 494.181 317.096 495.051C319.478 495.912 321.571 496.45 323.409 496.665C325.247 496.881 327.885 496.99 331.337 496.99H403.816C429.483 496.99 451.435 487.876 469.655 469.648C487.884 451.419 496.998 429.467 496.998 403.8V93.1867C496.995 67.5183 487.881 45.5637 469.657 27.3389Z" fill="#0277B9"/>
<path d="M98.3638 361.748C96.8554 362.822 97.0707 364.548 99.0121 366.922C101.172 369.077 102.896 369.402 104.191 367.891C105.7 366.816 105.484 365.09 103.54 362.712C101.384 360.774 99.6592 360.449 98.3638 361.748Z" fill="#0277B9"/>
<path d="M87.689 353.659C87.043 355.172 87.7978 356.467 89.9545 357.541C91.6783 358.624 93.0847 358.411 94.1602 356.898C94.8062 355.385 94.0514 354.089 91.8947 353.007C89.738 352.359 88.3361 352.576 87.689 353.659Z" fill="#0277B9"/>
<path d="M108.397 374.369C106.454 375.443 106.454 377.39 108.397 380.191C110.339 382.999 112.169 383.751 113.897 382.455C115.84 380.943 115.84 378.894 113.897 376.304C112.173 373.507 110.339 372.852 108.397 374.369Z" fill="#0277B9"/>
<path d="M119.725 388.924C117.782 390.653 118.21 392.694 121.019 395.075C123.604 397.658 125.762 397.983 127.488 396.038C129.215 394.316 128.783 392.268 126.193 389.895C123.608 387.311 121.451 386.985 119.725 388.924Z" fill="#0277B9"/>
</svg>
