<svg width="505" height="504" viewBox="0 0 505 504" fill="none" xmlns="http://www.w3.org/2000/svg">
<path d="M377.6 0H126.4C56.8 0 0 56.8 0 126.4V378C0 447.2 56.8 504 126.4 504H378C447.6 504 504.4 447.2 504.4 377.6V126.4C504 56.8 447.2 0 377.6 0ZM168 408H96V200H168V408ZM131.6 168C111.2 168 94.8 151.6 94.8 131.2C94.8 110.8 111.2 94.4 131.6 94.4C152 94.4 168.4 110.8 168.4 131.2C168 151.6 151.6 168 131.6 168ZM408.4 408H408H348V307.2C348 282.8 344.8 251.6 311.6 251.6C277.6 251.6 272 278 272 305.6V408H212V200H268V228H269.6C278.4 212 298.8 199.6 330.8 199.6C396.8 199.6 408.4 237.6 408.4 294V408Z" fill="#0277B9"/>
</svg>
